<mxfile host="app.diagrams.net" modified="2020-10-30T01:49:04.441Z" agent="5.0 (Macintosh; Intel Mac OS X 10_15_0) AppleWebKit/537.36 (KHTML, like Gecko) Chrome/80.0.3987.149 Safari/537.36" etag="__9a1-6QzZUcLShteCRz" version="13.8.7" type="github">
  <diagram id="MNW4YP1ag0ayKpjQEIjX" name="Page-1">
    <mxGraphModel dx="946" dy="538" grid="1" gridSize="10" guides="1" tooltips="1" connect="1" arrows="1" fold="1" page="1" pageScale="1" pageWidth="827" pageHeight="1169" math="0" shadow="0">
      <root>
        <mxCell id="0" />
        <mxCell id="1" parent="0" />
        <mxCell id="7RGmec87-YOgg7ozz80Q-14" style="edgeStyle=orthogonalEdgeStyle;rounded=0;orthogonalLoop=1;jettySize=auto;html=1;exitX=1;exitY=0.5;exitDx=0;exitDy=0;entryX=0;entryY=0.5;entryDx=0;entryDy=0;sketch=1;" edge="1" parent="1" source="7RGmec87-YOgg7ozz80Q-1" target="7RGmec87-YOgg7ozz80Q-3">
          <mxGeometry relative="1" as="geometry" />
        </mxCell>
        <mxCell id="7RGmec87-YOgg7ozz80Q-1" value="对象" style="rounded=1;whiteSpace=wrap;html=1;sketch=1;fillColor=#fff2cc;strokeColor=#d6b656;" vertex="1" parent="1">
          <mxGeometry x="70" y="190" width="100" height="50" as="geometry" />
        </mxCell>
        <mxCell id="7RGmec87-YOgg7ozz80Q-2" value="对象" style="rounded=1;whiteSpace=wrap;html=1;sketch=1;fillColor=#fff2cc;strokeColor=#d6b656;" vertex="1" parent="1">
          <mxGeometry x="400" y="190" width="100" height="50" as="geometry" />
        </mxCell>
        <mxCell id="7RGmec87-YOgg7ozz80Q-3" value="" style="rounded=1;whiteSpace=wrap;html=1;sketch=1;fillColor=#dae8fc;strokeColor=#6c8ebf;" vertex="1" parent="1">
          <mxGeometry x="240" y="195" width="10" height="40" as="geometry" />
        </mxCell>
        <mxCell id="7RGmec87-YOgg7ozz80Q-4" value="" style="rounded=1;whiteSpace=wrap;html=1;sketch=1;fillColor=#dae8fc;strokeColor=#6c8ebf;" vertex="1" parent="1">
          <mxGeometry x="260" y="195" width="10" height="40" as="geometry" />
        </mxCell>
        <mxCell id="7RGmec87-YOgg7ozz80Q-5" value="" style="rounded=1;whiteSpace=wrap;html=1;sketch=1;fillColor=#dae8fc;strokeColor=#6c8ebf;" vertex="1" parent="1">
          <mxGeometry x="280" y="195" width="10" height="40" as="geometry" />
        </mxCell>
        <mxCell id="7RGmec87-YOgg7ozz80Q-6" value="" style="rounded=1;whiteSpace=wrap;html=1;sketch=1;fillColor=#dae8fc;strokeColor=#6c8ebf;" vertex="1" parent="1">
          <mxGeometry x="300" y="195" width="10" height="40" as="geometry" />
        </mxCell>
        <mxCell id="7RGmec87-YOgg7ozz80Q-15" style="edgeStyle=orthogonalEdgeStyle;rounded=0;orthogonalLoop=1;jettySize=auto;html=1;exitX=1;exitY=0.5;exitDx=0;exitDy=0;entryX=0;entryY=0.5;entryDx=0;entryDy=0;sketch=1;" edge="1" parent="1" source="7RGmec87-YOgg7ozz80Q-7" target="7RGmec87-YOgg7ozz80Q-2">
          <mxGeometry relative="1" as="geometry" />
        </mxCell>
        <mxCell id="7RGmec87-YOgg7ozz80Q-7" value="" style="rounded=1;whiteSpace=wrap;html=1;sketch=1;fillColor=#dae8fc;strokeColor=#6c8ebf;" vertex="1" parent="1">
          <mxGeometry x="320" y="195" width="10" height="40" as="geometry" />
        </mxCell>
        <mxCell id="7RGmec87-YOgg7ozz80Q-16" value="序列化" style="text;html=1;strokeColor=none;fillColor=none;align=center;verticalAlign=middle;whiteSpace=wrap;rounded=0;sketch=1;" vertex="1" parent="1">
          <mxGeometry x="180" y="175" width="40" height="20" as="geometry" />
        </mxCell>
        <mxCell id="7RGmec87-YOgg7ozz80Q-18" value="反序列化" style="text;html=1;strokeColor=none;fillColor=none;align=center;verticalAlign=middle;whiteSpace=wrap;rounded=0;sketch=1;" vertex="1" parent="1">
          <mxGeometry x="340" y="170" width="50" height="25" as="geometry" />
        </mxCell>
        <mxCell id="7RGmec87-YOgg7ozz80Q-21" value="二进制数据" style="text;html=1;strokeColor=none;fillColor=none;align=center;verticalAlign=middle;whiteSpace=wrap;rounded=0;sketch=1;" vertex="1" parent="1">
          <mxGeometry x="240" y="160" width="95" height="20" as="geometry" />
        </mxCell>
      </root>
    </mxGraphModel>
  </diagram>
</mxfile>
